<svg xmlns="http://www.w3.org/2000/svg" xmlns:xlink="http://www.w3.org/1999/xlink" width="1088" zoomAndPan="magnify" viewBox="0 0 816 296.999993" height="396" preserveAspectRatio="xMidYMid meet" version="1.0"><defs><g/><clipPath id="734dd3ec1a"><path d="M 16.476562 54.769531 L 185.871094 54.769531 L 185.871094 123 L 16.476562 123 Z M 16.476562 54.769531 " clip-rule="nonzero"/></clipPath></defs><g fill="#e52d27" fill-opacity="1"><g transform="translate(97.784479, 193.665292)"><g><path d="M 61.59375 0 L 30.609375 -40.71875 L 30.609375 0 L 8.140625 0 L 8.140625 -92.203125 L 30.609375 -92.203125 L 30.609375 -51.75 L 61.34375 -92.203125 L 87.734375 -92.203125 L 52.015625 -47.015625 L 89.046875 0 Z M 61.59375 0 "/></g></g></g><g fill="#e52d27" fill-opacity="1"><g transform="translate(189.32414, 193.665292)"><g><path d="M 3.671875 -36.78125 C 3.671875 -44.3125 5.09375 -50.921875 7.9375 -56.609375 C 10.789062 -62.296875 14.664062 -66.671875 19.5625 -69.734375 C 24.46875 -72.804688 29.941406 -74.34375 35.984375 -74.34375 C 41.148438 -74.34375 45.679688 -73.289062 49.578125 -71.1875 C 53.472656 -69.082031 56.472656 -66.320312 58.578125 -62.90625 L 58.578125 -73.296875 L 81.046875 -73.296875 L 81.046875 0 L 58.578125 0 L 58.578125 -10.375 C 56.390625 -6.957031 53.347656 -4.195312 49.453125 -2.09375 C 45.554688 0 41.023438 1.046875 35.859375 1.046875 C 29.898438 1.046875 24.46875 -0.503906 19.5625 -3.609375 C 14.664062 -6.722656 10.789062 -11.144531 7.9375 -16.875 C 5.09375 -22.613281 3.671875 -29.25 3.671875 -36.78125 Z M 58.578125 -36.640625 C 58.578125 -42.242188 57.019531 -46.664062 53.90625 -49.90625 C 50.800781 -53.144531 47.019531 -54.765625 42.5625 -54.765625 C 38.09375 -54.765625 34.300781 -53.164062 31.1875 -49.96875 C 28.082031 -46.78125 26.53125 -42.382812 26.53125 -36.78125 C 26.53125 -31.175781 28.082031 -26.726562 31.1875 -23.4375 C 34.300781 -20.15625 38.09375 -18.515625 42.5625 -18.515625 C 47.019531 -18.515625 50.800781 -20.132812 53.90625 -23.375 C 57.019531 -26.613281 58.578125 -31.035156 58.578125 -36.640625 Z M 58.578125 -36.640625 "/></g></g></g><g fill="#e52d27" fill-opacity="1"><g transform="translate(278.499797, 193.665292)"><g><path d="M 101.65625 -74.078125 C 110.757812 -74.078125 118.003906 -71.316406 123.390625 -65.796875 C 128.773438 -60.285156 131.46875 -52.625 131.46875 -42.8125 L 131.46875 0 L 109.140625 0 L 109.140625 -39.796875 C 109.140625 -44.523438 107.890625 -48.179688 105.390625 -50.765625 C 102.898438 -53.347656 99.46875 -54.640625 95.09375 -54.640625 C 90.71875 -54.640625 87.28125 -53.347656 84.78125 -50.765625 C 82.289062 -48.179688 81.046875 -44.523438 81.046875 -39.796875 L 81.046875 0 L 58.703125 0 L 58.703125 -39.796875 C 58.703125 -44.523438 57.453125 -48.179688 54.953125 -50.765625 C 52.460938 -53.347656 49.03125 -54.640625 44.65625 -54.640625 C 40.28125 -54.640625 36.84375 -53.347656 34.34375 -50.765625 C 31.851562 -48.179688 30.609375 -44.523438 30.609375 -39.796875 L 30.609375 0 L 8.140625 0 L 8.140625 -73.296875 L 30.609375 -73.296875 L 30.609375 -64.09375 C 32.878906 -67.15625 35.851562 -69.582031 39.53125 -71.375 C 43.207031 -73.175781 47.367188 -74.078125 52.015625 -74.078125 C 57.523438 -74.078125 62.445312 -72.894531 66.78125 -70.53125 C 71.125 -68.164062 74.519531 -64.796875 76.96875 -60.421875 C 79.507812 -64.441406 82.96875 -67.722656 87.34375 -70.265625 C 91.71875 -72.804688 96.488281 -74.078125 101.65625 -74.078125 Z M 101.65625 -74.078125 "/></g></g></g><g fill="#e52d27" fill-opacity="1"><g transform="translate(417.582312, 193.665292)"><g><path d="M 83.015625 -73.296875 L 37.03125 34.8125 L 12.875 34.8125 L 29.6875 -2.5 L -0.125 -73.296875 L 24.953125 -73.296875 L 41.90625 -27.453125 L 58.703125 -73.296875 Z M 83.015625 -73.296875 "/></g></g></g><g fill="#e52d27" fill-opacity="1"><g transform="translate(500.585266, 193.665292)"><g><path d="M 3.671875 -36.78125 C 3.671875 -44.3125 5.09375 -50.921875 7.9375 -56.609375 C 10.789062 -62.296875 14.664062 -66.671875 19.5625 -69.734375 C 24.46875 -72.804688 29.941406 -74.34375 35.984375 -74.34375 C 41.148438 -74.34375 45.679688 -73.289062 49.578125 -71.1875 C 53.472656 -69.082031 56.472656 -66.320312 58.578125 -62.90625 L 58.578125 -73.296875 L 81.046875 -73.296875 L 81.046875 0 L 58.578125 0 L 58.578125 -10.375 C 56.390625 -6.957031 53.347656 -4.195312 49.453125 -2.09375 C 45.554688 0 41.023438 1.046875 35.859375 1.046875 C 29.898438 1.046875 24.46875 -0.503906 19.5625 -3.609375 C 14.664062 -6.722656 10.789062 -11.144531 7.9375 -16.875 C 5.09375 -22.613281 3.671875 -29.25 3.671875 -36.78125 Z M 58.578125 -36.640625 C 58.578125 -42.242188 57.019531 -46.664062 53.90625 -49.90625 C 50.800781 -53.144531 47.019531 -54.765625 42.5625 -54.765625 C 38.09375 -54.765625 34.300781 -53.164062 31.1875 -49.96875 C 28.082031 -46.78125 26.53125 -42.382812 26.53125 -36.78125 C 26.53125 -31.175781 28.082031 -26.726562 31.1875 -23.4375 C 34.300781 -20.15625 38.09375 -18.515625 42.5625 -18.515625 C 47.019531 -18.515625 50.800781 -20.132812 53.90625 -23.375 C 57.019531 -26.613281 58.578125 -31.035156 58.578125 -36.640625 Z M 58.578125 -36.640625 "/></g></g></g><g fill="#e52d27" fill-opacity="1"><g transform="translate(589.760924, 193.665292)"><g><path d="M 30.609375 -62.90625 C 32.703125 -66.320312 35.71875 -69.082031 39.65625 -71.1875 C 43.601562 -73.289062 48.113281 -74.34375 53.1875 -74.34375 C 59.226562 -74.34375 64.703125 -72.804688 69.609375 -69.734375 C 74.515625 -66.671875 78.390625 -62.296875 81.234375 -56.609375 C 84.078125 -50.921875 85.5 -44.3125 85.5 -36.78125 C 85.5 -29.25 84.078125 -22.613281 81.234375 -16.875 C 78.390625 -11.144531 74.515625 -6.722656 69.609375 -3.609375 C 64.703125 -0.503906 59.226562 1.046875 53.1875 1.046875 C 48.019531 1.046875 43.507812 0.0195312 39.65625 -2.03125 C 35.8125 -4.09375 32.796875 -6.832031 30.609375 -10.25 L 30.609375 0 L 8.140625 0 L 8.140625 -97.1875 L 30.609375 -97.1875 Z M 62.65625 -36.78125 C 62.65625 -42.382812 61.097656 -46.78125 57.984375 -49.96875 C 54.878906 -53.164062 51.050781 -54.765625 46.5 -54.765625 C 42.03125 -54.765625 38.238281 -53.144531 35.125 -49.90625 C 32.019531 -46.664062 30.46875 -42.242188 30.46875 -36.640625 C 30.46875 -31.035156 32.019531 -26.613281 35.125 -23.375 C 38.238281 -20.132812 42.03125 -18.515625 46.5 -18.515625 C 50.957031 -18.515625 54.765625 -20.15625 57.921875 -23.4375 C 61.078125 -26.726562 62.65625 -31.175781 62.65625 -36.78125 Z M 62.65625 -36.78125 "/></g></g></g><g fill="#e52d27" fill-opacity="1"><g transform="translate(678.936582, 193.665292)"><g><path d="M 19.4375 -80.90625 C 15.5 -80.90625 12.28125 -82.066406 9.78125 -84.390625 C 7.289062 -86.710938 6.046875 -89.578125 6.046875 -92.984375 C 6.046875 -96.492188 7.289062 -99.40625 9.78125 -101.71875 C 12.28125 -104.039062 15.5 -105.203125 19.4375 -105.203125 C 23.289062 -105.203125 26.460938 -104.039062 28.953125 -101.71875 C 31.453125 -99.40625 32.703125 -96.492188 32.703125 -92.984375 C 32.703125 -89.578125 31.453125 -86.710938 28.953125 -84.390625 C 26.460938 -82.066406 23.289062 -80.90625 19.4375 -80.90625 Z M 30.609375 -73.296875 L 30.609375 0 L 8.140625 0 L 8.140625 -73.296875 Z M 30.609375 -73.296875 "/></g></g></g><g clip-path="url(#734dd3ec1a)"><path fill="#4d4d4d" d="M 94.988281 79.410156 C 95.105469 80.335938 93.253906 81.261719 91.058594 81.492188 C 90.828125 81.492188 90.597656 81.492188 90.363281 81.492188 L 53.484375 106 L 113.835938 98.140625 L 185.976562 54.785156 L 91.289062 68.890625 L 16.371094 110.855469 L 49.554688 106.578125 L 50.710938 106.464844 L 87.707031 81.144531 C 87.128906 80.914062 86.664062 80.796875 86.664062 80.105469 C 86.550781 79.410156 88.398438 78.136719 90.597656 78.023438 C 92.910156 77.792969 94.875 78.371094 94.988281 79.410156 Z M 68.398438 118.601562 C 67.9375 110.742188 67.9375 106.234375 68.398438 105.078125 L 113.949219 99.179688 L 132.679688 87.851562 C 137.304688 95.597656 140.425781 103.457031 142.160156 111.433594 C 142.277344 111.78125 142.277344 112.246094 142.390625 112.589844 C 109.558594 123.226562 84.929688 125.191406 68.398438 118.601562 Z M 68.398438 118.601562 " fill-opacity="1" fill-rule="evenodd"/></g><path fill="#7b15e8" d="M 53.714844 157.332031 C 53.714844 157.21875 53.714844 157.101562 53.714844 156.988281 C 53.714844 156.988281 53.714844 157.21875 53.714844 157.332031 Z M 91.058594 81.605469 C 93.488281 81.375 95.335938 80.335938 95.222656 79.292969 C 95.105469 78.253906 93.140625 77.675781 90.710938 77.90625 C 88.285156 78.136719 86.433594 79.179688 86.550781 80.21875 C 86.550781 80.683594 87.011719 81.027344 87.707031 81.261719 L 50.710938 106.347656 L 50.824219 110.972656 C 48.859375 111.78125 47.703125 113.746094 47.820312 115.945312 C 48.050781 118.023438 49.4375 119.644531 51.402344 120.222656 C 51.519531 128.429688 51.75 136.640625 51.980469 144.847656 C 51.980469 145.886719 52.097656 146.929688 52.097656 147.855469 C 52.210938 152.941406 52.328125 157.332031 52.558594 161.148438 C 52.90625 170.746094 53.253906 176.292969 53.484375 177.796875 L 53.136719 161.496094 L 53.023438 156.0625 L 53.367188 161.613281 L 54.410156 179.648438 C 54.292969 171.554688 54.179688 165.65625 54.0625 161.84375 C 53.945312 159.53125 53.945312 158.027344 53.945312 157.449219 C 54.0625 159.066406 54.179688 160.457031 54.292969 161.957031 C 54.988281 170.28125 55.335938 175.832031 55.449219 178.605469 C 55.21875 170.859375 55.101562 165.425781 55.101562 162.304688 C 55.101562 160.457031 55.101562 159.414062 55.21875 159.300781 C 55.335938 160.339844 55.335938 161.378906 55.449219 162.421875 C 56.027344 171.902344 56.492188 178.027344 56.605469 181.035156 C 56.605469 172.480469 56.492188 166.46875 56.492188 162.882812 C 56.492188 161.265625 56.375 160.222656 56.375 159.644531 C 56.492188 160.800781 56.492188 161.957031 56.605469 163 C 57.414062 174.90625 57.761719 181.148438 57.878906 181.726562 C 57.878906 172.480469 57.878906 166.46875 57.878906 163.578125 C 57.878906 163 57.878906 162.535156 57.878906 162.191406 C 57.992188 162.652344 57.992188 163.230469 57.992188 163.578125 C 58.917969 175.949219 59.378906 182.304688 59.496094 182.539062 L 59.496094 161.148438 C 59.613281 162.304688 59.613281 163.347656 59.613281 164.386719 C 60.191406 177.21875 60.769531 183.347656 61.230469 182.882812 L 60.652344 164.964844 C 58.800781 150.164062 56.257812 134.789062 54.988281 120.222656 C 56.722656 119.296875 57.878906 117.445312 57.644531 115.367188 C 57.414062 113.285156 56.027344 111.667969 54.179688 111.089844 L 53.714844 106.347656 L 90.132812 81.605469 L 90.25 81.605469 C 90.597656 81.605469 90.828125 81.605469 91.058594 81.605469 Z M 56.144531 159.53125 C 56.144531 159.414062 56.144531 159.183594 56.144531 158.953125 C 56.144531 158.953125 56.144531 159.183594 56.144531 159.53125 Z M 57.644531 161.957031 C 57.644531 161.84375 57.644531 161.613281 57.644531 161.496094 C 57.644531 161.613281 57.644531 161.726562 57.644531 161.957031 Z M 57.644531 161.957031 " fill-opacity="1" fill-rule="evenodd"/></svg>